<?xml version="1.0" standalone="no"?>
<!DOCTYPE svg PUBLIC "-//W3C//DTD SVG 20010904//EN"
 "http://www.w3.org/TR/2001/REC-SVG-20010904/DTD/svg10.dtd">
<svg version="1.0" xmlns="http://www.w3.org/2000/svg"
 width="341.000000pt" height="341.000000pt" viewBox="0 0 341.000000 341.000000"
 preserveAspectRatio="xMidYMid meet">
<metadata>
Created by potrace 1.14, written by Peter Selinger 2001-2017
</metadata>
<g transform="translate(0.000000,341.000000) scale(0.100000,-0.100000)"
fill="#000000" stroke="none">
<path d="M424 3076 c1 -297 3 -331 17 -334 20 -4 27 14 34 86 11 104 41 175
102 235 53 54 98 75 179 82 38 3 392 8 787 10 l717 4 -11 -20 c-12 -24 -719
-1176 -754 -1229 -20 -32 -210 -341 -405 -660 -42 -69 -107 -174 -145 -235
-37 -60 -75 -122 -84 -137 -9 -15 -83 -137 -165 -270 -280 -454 -336 -550
-336 -574 l0 -24 1153 0 c1323 0 1190 -10 1293 104 104 115 137 197 190 462
25 124 43 229 39 232 -16 16 -43 -23 -80 -115 -113 -277 -275 -442 -498 -504
-30 -9 -248 -13 -769 -14 l-727 -2 14 26 c8 14 42 69 75 121 32 52 68 111 79
130 10 19 71 120 135 223 64 103 116 190 116 193 0 3 13 24 29 47 16 23 39 60
52 83 13 22 134 222 269 443 135 221 254 416 265 435 11 18 66 109 123 202
176 290 394 648 406 669 6 11 47 79 91 152 44 73 89 148 100 167 11 19 52 90
92 158 67 116 85 154 73 159 -5 2 -75 -7 -135 -18 -64 -11 -85 -12 -230 -20
-192 -9 -1489 -10 -1660 -1 -144 8 -224 19 -348 47 l-84 18 1 -331z"/>
</g>
</svg>
